# xmcd
#
# Track frame offsets: 
#        182
#        18265
#        45440
#        63582
#
# Disc length: 1186 seconds
#
# Revision: 0
# Processed by: cddbd v1.5.2PL0 Copyright (c) Steve Scherf et al.
# Submitted via: ExactAudioCopy v0.99pb5
#
DISCID=2904a004
DTITLE=Bryan Powell - Natural
DYEAR=1991
DGENRE=R&B
TTITLE0=Natural (Radio Edit)
TTITLE1=Natural
TTITLE2=Like U Do (Radio Edit)
TTITLE3=Natural (Sly And Robbie Remix, Fatta's Mix)
EXTD=
EXTT0=
EXTT1=
EXTT2=
EXTT3=
PLAYORDER=
